<?xml version="1.0" encoding="UTF-8"?>
<svg width="56px" height="56px" viewBox="0 0 56 56" version="1.1" xmlns="http://www.w3.org/2000/svg" xmlns:xlink="http://www.w3.org/1999/xlink">
    <!-- Generator: Sketch 55.2 (78181) - https://sketchapp.com -->
    <title>Icon_Variety</title>
    <desc>Created with Sketch.</desc>
    <defs>
        <polygon id="path-1" points="0.194037187 0.130985423 46.1812747 0.130985423 46.1812747 29.2389433 0.194037187 29.2389433"></polygon>
        <polygon id="path-3" points="0.0155012335 0.0278104954 40.0303573 0.0278104954 40.0303573 28.9355928 0.0155012335 28.9355928"></polygon>
    </defs>
    <g id="Icon_Variety" stroke="none" stroke-width="1" fill="none" fillRule="evenodd">
        <g id="Variety_Icon" transform="translate(4.000000, 4.000000)">
            <path d="M23.886109,18.2829298 C23.685368,18.394797 23.6184544,18.6510841 23.7362637,18.8588006 C23.8540731,19.0670339 24.1134604,19.1476403 24.3147181,19.0383566 L31.0879821,15.3617224 C31.1130424,15.3480296 31.1360359,15.3317533 31.1567042,15.3139269 C31.3031908,15.1883669 31.3414272,14.9682494 31.2378273,14.7858515 C31.1200179,14.5778767 30.860889,14.4970119 30.659373,14.6062956 L23.886109,18.2829298 Z" id="Fill-1" fill="#002684"></path>
            <path d="M25.0298417,20.1063916 C24.8200583,20.2260094 24.7459107,20.4882386 24.8632034,20.698022 C24.9804961,20.9067719 25.2458255,20.9822113 25.4550922,20.8646602 L31.6421512,17.3983261 C31.6677282,17.3841166 31.6912384,17.3670653 31.7126818,17.3489805 C31.8666607,17.2169617 31.9118726,16.9906436 31.8085311,16.8064373 C31.6914967,16.5976874 31.4259089,16.5225064 31.2169007,16.6400574 L25.0298417,20.1063916 Z" id="Fill-2" fill="#002684"></path>
            <path d="M26.1482557,21.7464221 C25.9397641,21.8619063 25.8609661,22.1249105 25.9782588,22.3365024 C26.0940013,22.5462857 26.3585557,22.6225001 26.5683391,22.5059825 L32.649473,19.1429899 C32.6755667,19.1282637 32.7001103,19.1119874 32.7225871,19.0931276 C32.875791,18.9616255 32.9212613,18.7368576 32.8194698,18.5526513 C32.7037273,18.3428679 32.4391729,18.2666535 32.2293895,18.3834295 L26.1482557,21.7464221 Z" id="Fill-3" fill="#002684"></path>
            <path d="M23.3135968,16.0887302 C23.1051052,16.2042144 23.0263072,16.4672187 23.1435999,16.6788105 C23.2593425,16.8885939 23.5238968,16.9648083 23.7336802,16.8482906 L29.8145557,13.485298 C29.8409078,13.4708302 29.8654514,13.4542956 29.8879282,13.4354357 C30.0411321,13.304192 30.0866024,13.0791657 29.9848109,12.8952178 C29.8690684,12.685176 29.604514,12.60922 29.3947307,12.7257376 L23.3135968,16.0887302 Z" id="Fill-4" fill="#002684"></path>
            <path d="M28.5522386,22.5005571 C28.3618318,22.6051904 28.2987935,22.8563104 28.4181529,23.0629935 C28.5375124,23.2696766 28.7925077,23.3539 28.9870482,23.2505584 L33.7591029,20.7070644 C33.7833882,20.6941467 33.8048316,20.6789038 33.8247248,20.6615941 C33.9652693,20.5417179 33.9980803,20.3259924 33.8931886,20.1446279 C33.7738291,19.9379448 33.5188338,19.8534631 33.3242933,19.9568047 L28.5522386,22.5005571 Z" id="Fill-5" fill="#002684"></path>
            <path d="M22.8555353,13.9725535 C22.6498856,14.0901045 22.5716044,14.3541422 22.6878636,14.5636672 C22.8041229,14.7729338 23.069194,14.8488899 23.2789773,14.7323723 L28.431329,11.8633523 C28.4574227,11.8486261 28.4809329,11.8318331 28.5026347,11.8132317 C28.6563552,11.6814712 28.7010505,11.4556699 28.5990007,11.2719803 C28.4827414,11.0627136 28.2176703,10.9867576 28.007887,11.1035335 L22.8555353,13.9725535 Z" id="Fill-6" fill="#002684"></path>
            <g id="Group-10" transform="translate(0.775062, 0.000000)">
                <mask id="mask-2" fill="white">
                    <use xlink:href="#path-1"></use>
                </mask>
                <g id="Clip-8"></g>
                <path d="M42.8397255,18.3681866 C42.4821637,18.3681866 42.192549,18.0783135 42.192549,17.7210101 C42.192549,17.36319 42.4821637,17.0733169 42.8397255,17.0733169 C43.1975456,17.0733169 43.4874187,17.36319 43.4874187,17.7210101 C43.4874187,18.0783135 43.1975456,18.3681866 42.8397255,18.3681866 Z M41.6913425,16.0985477 L41.4169706,16.9100372 C41.380026,17.0190626 41.2619583,17.0774505 41.1531913,17.0405059 L40.3417017,16.7663925 C40.2326764,16.7294479 40.1742884,16.6113801 40.211233,16.5023548 L40.4853465,15.6911236 C40.5222911,15.5820982 40.6403588,15.5237102 40.7493842,15.5603965 L41.5606154,15.8347683 C41.6696407,15.8714546 41.7280287,15.9897807 41.6913425,16.0985477 Z M40.5881713,21.7908589 C40.2306096,21.7908589 39.9407365,21.5009859 39.9407365,21.1434241 C39.9407365,20.7858623 40.2306096,20.4957309 40.5881713,20.4957309 C40.9457331,20.4957309 41.2356062,20.7858623 41.2356062,21.1434241 C41.2356062,21.5009859 40.9457331,21.7908589 40.5881713,21.7908589 Z M39.6084934,19.4581817 L39.3506562,18.6412667 C39.3160368,18.5317246 39.3770083,18.4146903 39.4865503,18.3800709 L40.3034654,18.122492 C40.4130074,18.0876143 40.5300417,18.1485858 40.5646611,18.2583862 L40.82224,19.0750428 C40.8571177,19.1848432 40.7961462,19.3016192 40.6863458,19.3362386 L39.8696892,19.5940758 C39.7598888,19.6286952 39.6431128,19.5677237 39.6084934,19.4581817 Z M38.7313819,21.959564 L37.9144669,22.2171429 C37.8049249,22.2520206 37.6878906,22.1910491 37.6532711,22.0812487 L37.3956923,21.2645921 C37.3610729,21.15505 37.4217861,21.0380157 37.5315865,21.0033963 L38.3485015,20.7458174 C38.4580435,20.7109397 38.5750778,20.7719112 38.6094389,20.8814532 L38.8672761,21.6983682 C38.9018955,21.8079103 38.840924,21.9249446 38.7313819,21.959564 Z M37.3931088,26.2218865 C35.6239013,27.099773 33.718283,27.5449168 31.7292164,27.5449168 C26.0363884,27.5449168 20.9853115,23.7215376 19.4462974,18.2470186 C19.4005687,18.084514 19.4953846,17.9155506 19.6576309,17.8700803 C19.8209105,17.8238349 19.9890989,17.9196842 20.0348275,18.0816721 C21.5002108,23.2934452 26.3089518,26.9333931 31.7292164,26.9333931 C33.6232088,26.9333931 35.4373698,26.5099511 37.1215788,25.6741763 C37.2729742,25.5987369 37.4558888,25.6610002 37.5313281,25.8121373 C37.6062507,25.9635326 37.5445041,26.1469639 37.3931088,26.2218865 Z M21.2909442,13.6255842 C21.7327293,12.0904454 23.2748437,11.4417188 24.5175259,10.3773007 C27.2302418,7.63280736 30.1095959,12.0307656 31.0742893,14.259068 C31.9216901,16.2171321 32.5303718,18.3281417 33.8639946,19.9937493 C34.191329,20.4022068 34.572401,20.8054972 34.6757425,21.3188464 C34.781926,21.8469217 34.5610334,22.4031577 34.1983046,22.801281 C33.8353173,23.1994044 33.3459951,23.4600834 32.846597,23.6621162 C30.4911846,24.6149253 27.702771,24.3625136 25.5103799,23.077978 C23.3185055,21.7937008 21.7495223,19.5245786 21.2333312,17.0371473 C20.9997793,15.9125329 20.9734272,14.729272 21.2909442,13.6255842 Z M21.5263046,7.20859027 C23.2257564,4.9133743 25.6829603,3.23588248 28.4452801,2.48407266 C28.6075264,2.43989415 28.7759731,2.53626015 28.82041,2.6990231 C28.8648468,2.86178605 28.7687392,3.02997443 28.6057179,3.0744113 C25.9754169,3.78979323 23.6357641,5.38719534 22.0176937,7.57235255 C21.9574972,7.65321731 21.8652649,7.69610406 21.7717407,7.69610406 C21.7081857,7.69610406 21.6446306,7.67672752 21.5898596,7.63616596 C21.4542238,7.53540794 21.4258049,7.34396771 21.5263046,7.20859027 Z M31.8524512,5.11489033 C31.8524512,5.11489033 31.1321606,2.1011922 33.4278932,3.9804584 C33.4278932,3.9804584 36.7505826,2.16500561 36.4315156,5.53290693 C36.4315156,5.53290693 38.5683606,6.65338776 38.0521695,8.90158331 C38.0521695,8.90158331 39.2070114,11.4618704 36.5524252,12.0442 C36.5524252,12.0442 37.0024777,12.663216 36.5813608,13.7224669 C36.2093312,14.6587414 34.4494245,14.8527652 34.4494245,14.8527652 L35.0085024,12.3906526 C35.1983925,11.5933725 35.246963,10.7361543 35.2193191,9.919756 C35.2319785,9.90890514 35.2487715,9.90502983 35.2596223,9.89211213 L36.9562323,7.87307647 C37.0699081,7.73924916 37.0528567,7.53824983 36.9177376,7.4235407 C36.7826185,7.31451536 36.5816192,7.32872483 36.4692353,7.46384391 L35.1578309,9.02300964 C35.112619,8.55590581 35.050614,8.11541242 34.9829253,7.73149854 C34.7416228,6.36480646 34.4155802,5.38926217 34.4018874,5.3481839 C34.3745019,5.26731913 34.3176641,5.20169724 34.2411913,5.16371922 C34.1644602,5.12522449 34.07817,5.1195407 33.998597,5.14770128 C33.8322171,5.20428078 33.7425683,5.38487015 33.7981144,5.55150841 C33.8037982,5.56778471 34.0438089,6.28936712 34.2587594,7.33260013 L32.9928253,6.68128998 C32.8357461,6.59732496 32.6440475,6.66423862 32.5639578,6.8189926 C32.4836098,6.97478 32.545098,7.16673694 32.7011438,7.24811841 L34.4021458,8.12342139 C34.5584499,9.0966405 34.6545575,10.2279722 34.5447571,11.306083 L33.6172667,10.5540148 C33.5165086,10.4721166 33.3671801,10.4878762 33.2855403,10.5886342 L33.235678,10.6501224 C33.1540381,10.7508805 33.1695394,10.900209 33.2702974,10.9821072 L34.4532998,11.9411168 C34.4326315,12.0504005 34.4104131,12.1591675 34.3845777,12.266126 L33.8280834,14.5768432 C31.6413761,14.0709863 31.7173321,11.733917 31.7173321,11.733917 C31.0864319,11.0433371 30.7898417,10.1326396 31.7160404,9.06873828 C31.7160404,9.06873828 29.1704795,5.00534828 31.8524512,5.11489033 Z M38.3993972,17.7210101 C38.3993972,18.0783135 38.1095241,18.3681866 37.7519623,18.3681866 C37.3944005,18.3681866 37.1045275,18.0783135 37.1045275,17.7210101 C37.1045275,17.36319 37.3944005,17.0733169 37.7519623,17.0733169 C38.1095241,17.0733169 38.3993972,17.36319 38.3993972,17.7210101 Z M38.4732864,15.7164423 L37.7821897,16.2220408 C37.6894407,16.2899879 37.558972,16.2698363 37.4912832,16.1770872 L36.9854263,15.4857322 C36.9177376,15.3929832 36.9378892,15.2627728 37.0306383,15.1948257 L37.7217349,14.6892272 C37.8147423,14.6212801 37.9449527,14.6414317 38.0128998,14.7341808 L38.5184983,15.4255358 C38.5864454,15.5182848 38.5662938,15.6484952 38.4732864,15.7164423 Z M39.9518457,12.8791998 C39.9518457,12.7642323 40.0448531,12.6712249 40.1600789,12.6712249 L41.0165221,12.6712249 C41.1314896,12.6712249 41.2247553,12.7642323 41.2247553,12.8791998 L41.2247553,13.7359013 C41.2247553,13.8508688 41.1314896,13.9438762 41.0165221,13.9438762 L40.1600789,13.9438762 C40.0448531,13.9438762 39.9518457,13.8508688 39.9518457,13.7359013 L39.9518457,12.8791998 Z M31.7292164,0.335084997 C23.7478897,0.335084997 17.2776748,6.8055582 17.2776748,14.7871433 C17.2776748,22.7687284 23.7478897,29.2389433 31.7292164,29.2389433 C39.7110599,29.2389433 46.1812747,22.7687284 46.1812747,14.7871433 C46.1812747,6.8055582 39.7110599,0.335084997 31.7292164,0.335084997 L31.7292164,0.335084997 Z" id="Fill-7" fill="#002684" mask="url(#mask-2)"></path>
                <path d="M14.5494577,2.09034133 C14.6391065,1.96994842 14.6662337,1.8428383 14.540932,1.78135008 C14.4424992,1.73174613 14.3660265,1.81803633 14.2936874,1.91543575 L11.4799551,5.2518179 C11.3786804,5.38745369 11.2872231,5.4944122 11.2001579,5.42956537 C11.113351,5.36471855 11.1952492,5.25465979 11.2983324,5.11644046 L13.7441686,1.50956179 C13.8185746,1.40983718 13.8777376,1.31476295 13.8020399,1.23441489 C13.707224,1.1318484 13.59329,1.19411168 13.5036412,1.3145046 L10.7015349,4.74725275 C10.6196367,4.8573115 10.5803669,4.96349495 10.4829675,4.89089751 C10.3858264,4.81855842 10.4783171,4.74802781 10.5584068,4.64055259 L13.0422211,0.982519847 C13.1168854,0.882795246 13.1757901,0.78746266 13.1003508,0.707372954 C13.0055349,0.604806459 12.8913425,0.667069747 12.8016937,0.787204306 L9.99803723,4.22253599 C9.91588069,4.33285311 9.8766109,4.4387782 9.77946984,4.36643911 C9.68207042,4.29384167 9.77430276,4.22331106 9.85465082,4.11583584 L12.3387235,0.458061449 C12.4131294,0.358078493 12.4720341,0.262745907 12.3965948,0.182656201 C12.3017789,0.0800897062 12.1875865,0.142352994 12.098196,0.262745907 L8.96978874,4.35197129 C8.96798026,4.35455483 8.96798026,4.35455483 8.96617179,4.35713837 C8.4988096,4.98416327 7.84517425,5.6473577 7.67621081,6.41311864 C7.55891814,6.9388688 7.75113344,7.59973806 7.54522539,8.11102041 C7.29927248,8.72383584 3.10231352,14.0389504 2.70419018,14.5621171 L0.28548105,17.6517712 C0.28548105,17.6517712 0.0175680646,18.1925059 0.398898408,18.4766952 C0.398898408,18.4766952 0.818206773,18.8650011 1.23389818,18.3072151 L3.49294461,15.1222283 C3.80606952,14.6432402 7.83509845,9.01965104 8.26164073,8.6450379 C8.92716035,8.06219152 9.91200538,8.29496838 10.5088029,7.60128818 C10.8599058,7.19412245 11.1619215,6.73063557 11.4822803,6.30073469 C11.4964898,6.28730029 11.5104409,6.27386589 11.5238753,6.25603947 L14.5494577,2.09034133" id="Fill-9" fill="#002684" mask="url(#mask-2)"></path>
            </g>
            <path d="M16.6767437,2.84964342 L2.34559498,19.3817089 C2.34559498,19.3817089 2.05210496,19.8077345 2.48355595,20.1818309 C2.48355595,20.1818309 2.98295403,20.6525517 3.3198475,20.2639874 L10.6891339,11.3050496 C10.6891339,11.3050496 13.1737233,10.8883247 15.286283,8.14589818 C15.286283,8.14589818 17.2823252,5.94472303 17.2365965,3.03229962 C17.2365965,3.03229962 17.1043194,2.31278403 16.6767437,2.84964342" id="Fill-11" fill="#002684"></path>
            <path d="M16.3713694,26.9308096 C16.4387997,27.0331177 16.4106392,27.1708204 16.308331,27.2382507 C16.2060229,27.3059394 16.0683203,27.2775205 16.0008899,27.1752124 C15.9332012,27.0729042 15.9616201,26.93546 16.0639282,26.8677712 C16.1662364,26.8003409 16.3036806,26.8285015 16.3713694,26.9308096" id="Fill-12" fill="#293166"></path>
            <path d="M14.088296,27.5862534 C14.1557264,27.6885616 14.1275658,27.8262642 14.0252577,27.8936946 C13.9229495,27.9611249 13.7852469,27.9329643 13.7178166,27.8306562 C13.6503862,27.7283481 13.6785468,27.5906454 13.7808549,27.5232151 C13.883163,27.4557847 14.0208657,27.4839453 14.088296,27.5862534" id="Fill-13" fill="#293166"></path>
            <path d="M16.3357165,29.2872554 C16.4031469,29.3895636 16.3749863,29.5272662 16.2726782,29.5946966 C16.17037,29.6621269 16.0326674,29.6339664 15.965237,29.5316582 C15.8978067,29.4293501 15.9259673,29.2916475 16.0282754,29.2242171 C16.1305835,29.1567867 16.2682862,29.1849473 16.3357165,29.2872554" id="Fill-14" fill="#293166"></path>
            <path d="M8.95557928,34.007381 C9.02300964,34.1096892 8.99459072,34.2471334 8.89228257,34.3148222 C8.78997443,34.3822525 8.65253016,34.3538336 8.58484144,34.2515255 C8.51741108,34.1492173 8.54583001,34.011773 8.64813815,33.9440843 C8.75044629,33.876654 8.88789056,33.9050729 8.95557928,34.007381" id="Fill-15" fill="#293166"></path>
            <path d="M8.96255483,31.1928737 C9.03024355,31.2951819 9.00208298,31.4328845 8.89977484,31.5003149 C8.7974667,31.5677452 8.65976407,31.5395847 8.59207535,31.4372765 C8.52464499,31.3349684 8.55280556,31.1972658 8.6551137,31.1298354 C8.75742184,31.062405 8.89512447,31.0905656 8.96255483,31.1928737" id="Fill-16" fill="#293166"></path>
            <g id="Group-20" transform="translate(0.000000, 18.084772)">
                <mask id="mask-4" fill="white">
                    <use xlink:href="#path-3"></use>
                </mask>
                <g id="Clip-18"></g>
                <path d="M39.7030509,24.4278771 L36.5196143,22.5909809 C36.043468,22.3393442 30.4196205,19.0577331 30.0307979,18.6908706 C29.4262498,18.1183584 29.557752,17.17485 28.8550294,16.6767437 C28.7126764,16.5752106 28.5633478,16.4809114 28.4122108,16.3886791 C28.410919,16.391521 28.1815008,16.25356 28.0675667,16.186388 C27.916688,16.0969975 27.5828948,15.8872142 27.5699771,15.8792052 L23.1603929,13.2228105 C23.0898623,13.1788903 23.0493007,13.1773402 23.0397416,13.1809572 L23.0270823,13.2044674 C23.0299242,13.2109262 23.048009,13.2346948 23.1345575,13.2879157 L26.7068168,15.8089329 C26.8285015,15.8841139 27.0664454,16.0311173 26.9408854,16.2339251 C26.9142749,16.2765535 26.8357354,16.3705943 26.6747809,16.3181485 C26.6065755,16.29593 26.5365616,16.2525266 26.4554384,16.2024059 L22.6558278,14.0779619 C22.5643705,14.0213824 22.5354349,14.0177654 22.5258758,14.016732 C22.5142498,14.0477345 22.533368,14.083129 22.604157,14.1270491 L26.2694236,16.6263647 C26.2846665,16.6356654 26.3040431,16.6467746 26.3223862,16.6568504 C26.3970505,16.6987037 26.4740399,16.7415905 26.4970334,16.8302059 C26.5107262,16.8836851 26.500392,16.9392312 26.4657726,16.994519 C26.4316699,17.050065 26.3867163,17.0839094 26.3327203,17.0955353 C26.2430715,17.1131034 26.1691823,17.0642745 26.098135,17.015704 C26.0810837,17.0043364 26.0629989,16.9919354 26.044139,16.9800511 L22.1910491,14.8225378 C22.0995918,14.7662166 22.0698811,14.7602745 22.0608388,14.7610496 C22.0494712,14.7923104 22.068331,14.8279632 22.13912,14.8718834 L25.8072285,17.3724907 C25.8224714,17.3817914 25.8418479,17.3929007 25.8604494,17.4032348 C25.9348553,17.4448298 26.0118448,17.4877165 26.03458,17.5763319 C26.0485311,17.6298112 26.0381969,17.6850989 26.0035775,17.7409033 C25.9694748,17.7961911 25.9245212,17.8300354 25.8705252,17.8416614 C25.7808764,17.8597461 25.7069872,17.8106589 25.6359399,17.7620884 C25.6188885,17.7504624 25.6008038,17.7380614 25.5819439,17.7261772 L21.728854,15.5686638 C21.6373967,15.5120843 21.6079444,15.5087257 21.5986436,15.5071756 L21.5857259,15.528619 C21.5872761,15.5386948 21.6061359,15.5740893 21.6769249,15.6180094 L26.0214039,18.3836878 C26.1709908,18.4761785 26.3187692,18.5751281 26.4691312,18.675111 C26.8173922,18.9078879 27.1736623,19.1427316 27.5400081,19.3005858 C27.5400081,19.3008441 27.5400081,19.3013608 27.5397497,19.3018776 C27.5469836,19.3042027 27.5547342,19.3075613 27.5619682,19.3101449 C27.6177726,19.3336551 27.6738354,19.3545817 27.7298982,19.3739583 C27.747983,19.3809338 27.765551,19.3871343 27.7836358,19.3935932 C27.7869944,19.3946266 27.790353,19.3959184 27.7937116,19.3969518 C27.8523579,19.4173617 27.9107459,19.4341547 27.9668087,19.4434555 C27.9732675,19.4447473 27.9797264,19.4473308 27.9861852,19.4486226 C27.9864436,19.4483642 27.9864436,19.4478475 27.986702,19.4475891 C27.9882521,19.4478475 27.9900606,19.4483642 27.9916107,19.4486226 C28.4946257,19.5121776 29.0960736,19.2610576 29.5931464,19.4090944 C30.1891689,19.5858085 35.5389029,23.0521426 36.0641364,23.3792187 L39.1721337,25.3744858 C39.1721337,25.3744858 39.7025342,25.5778103 39.9353111,25.1957049 C39.9353111,25.1957049 40.2623871,24.7686459 39.7030509,24.4278771" id="Fill-17" fill="#002684" mask="url(#mask-4)"></path>
                <path d="M8.00948733,18.8169473 C7.96169186,18.7446082 7.91751334,18.6709773 7.87281812,18.5978632 L7.87075129,18.599155 C7.85731689,18.5769365 7.84517425,18.5544597 7.83199821,18.5322413 C7.80693788,18.490388 7.78291097,18.4482763 7.75836735,18.4061646 C7.71909756,18.3377008 7.68086118,18.2689787 7.64365822,18.1994815 C7.62273155,18.1602117 7.6023216,18.1206836 7.58216999,18.0814138 C7.54445033,18.0072662 7.50802243,17.9331186 7.47262794,17.858196 C7.47211124,17.8571626 7.47133617,17.8558708 7.47081947,17.8548374 C7.45505988,17.820993 7.43930029,17.7871487 7.42405741,17.7533043 C7.38556268,17.6683059 7.34861808,17.5825324 7.31348195,17.4965006 C7.30314779,17.4714402 7.29307199,17.4463799 7.28299619,17.4215779 C7.24398475,17.3228867 7.20704014,17.2239372 7.17242072,17.1242126 C7.16777035,17.1110366 7.16311998,17.0978605 7.15846961,17.0849428 C6.72340166,15.8164252 6.63116932,14.4505082 6.90760798,13.1024176 C6.92595111,13.0135438 6.94739448,12.9257035 6.9685795,12.8381216 C6.97581341,12.8073774 6.9820139,12.776375 6.98976452,12.7458892 C7.36076071,11.2887733 8.14150617,9.99726217 9.24338551,9.00053285 C9.24648576,8.99794932 9.2490693,8.99510742 9.25216954,8.99252388 C9.33613456,8.91682619 9.42242476,8.84319534 9.51000673,8.77085625 C9.52189101,8.7610388 9.53325858,8.75070464 9.54514286,8.74088719 C9.62755775,8.67397354 9.71178112,8.60964342 9.7970379,8.54583001 C9.81538103,8.53213725 9.83294909,8.51766943 9.85129222,8.50397668 C9.95360036,8.42905405 10.057717,8.3564566 10.1641588,8.28592599 C10.1659673,8.28489258 10.1677757,8.28360081 10.1695842,8.28256739 C10.3090953,8.19033505 10.45119,8.10533662 10.594318,8.02369679 C10.6356546,8.00018659 10.6772496,7.97719309 10.7188446,7.95445795 C10.8348455,7.89116125 10.9518798,7.83122314 11.0696892,7.77438529 C11.1032752,7.75836735 11.1363445,7.74079928 11.1699305,7.72503969 C11.3084082,7.66096793 11.448436,7.60206324 11.5889805,7.54703386 C11.6468518,7.52429872 11.7049814,7.50337206 11.7633694,7.48218704 C11.8563768,7.44834268 11.9499009,7.41656515 12.0439417,7.38633774 C12.10698,7.36592779 12.16976,7.34500112 12.2333151,7.32639964 C12.3640422,7.28842162 12.4958026,7.25406055 12.6275631,7.22331644 C12.7040359,7.20549002 12.7810253,7.19024714 12.8580148,7.17474591 C12.9339708,7.15976138 13.0099269,7.14555192 13.0861413,7.13263422 C13.1651976,7.11945817 13.2439955,7.10550706 13.3233102,7.09491455 C13.4535205,7.07708814 13.5837309,7.06287867 13.7139412,7.05202781 C13.7891222,7.04556896 13.8643032,7.04195201 13.9397425,7.0380767 C14.0273245,7.03316797 14.1149065,7.03006773 14.2027468,7.0285176 C14.2489922,7.02748419 14.2949791,7.02335053 14.3412245,7.02335053 C14.3693851,7.02335053 14.3975456,7.025159 14.4257062,7.02541736 C14.4383656,7.02567571 14.4507665,7.02645077 14.4631675,7.02645077 C14.5714178,7.02825925 14.6796681,7.0313595 14.7879184,7.03781834 C14.813237,7.03936847 14.8382974,7.04195201 14.8636161,7.04350213 C14.9594654,7.05021933 15.0553146,7.05719489 15.1514223,7.06752904 C15.1961175,7.07217941 15.2405544,7.07889661 15.2852496,7.0845804 C15.3624974,7.09413949 15.4397452,7.10292353 15.5172514,7.11506616 C15.6123256,7.12979233 15.7071415,7.14761875 15.801699,7.16596187 C15.8290845,7.17112895 15.8564701,7.17500426 15.8838556,7.18068805 C17.2327212,7.45712671 18.4526683,8.08001794 19.4478475,8.97960619 C19.4568899,8.98787351 19.4656739,8.99614084 19.4747163,9.00440816 C19.5540309,9.07674725 19.6320538,9.15089482 19.7085266,9.22685086 C19.726353,9.24467728 19.7439211,9.26276205 19.7617475,9.28058847 C19.8284028,9.34853555 19.8940247,9.41725768 19.9583548,9.48778829 C19.9823817,9.51362368 20.0058919,9.53971743 20.0291438,9.56632788 C20.0864983,9.630658 20.1425611,9.69576318 20.1975905,9.76241848 C20.224976,9.79522942 20.2521032,9.82804037 20.278972,9.86162637 C20.3290926,9.92414802 20.3781799,9.98770307 20.4262337,10.0520332 C20.454911,10.0897529 20.4835882,10.1274725 20.5114905,10.1662256 C20.5267333,10.1874106 20.5430096,10.2075622 20.5582525,10.2290056 L20.5561857,10.2305557 C20.6057896,10.3005696 20.6561686,10.3700668 20.7037058,10.4424059 L8.00948733,18.8169473 Z M19.4571482,18.532758 C18.9841023,18.6534093 18.5764198,18.6559928 18.5461924,18.5387002 C18.5162234,18.4208908 18.8753353,18.2276421 19.3481229,18.1067325 C19.8211689,17.9860812 20.2288513,17.9832393 20.2588204,18.1007903 C20.2887894,18.2185997 19.9299359,18.4118484 19.4571482,18.532758 Z M19.2026697,20.4949558 C18.724715,20.3967813 18.356819,20.2211007 18.3811043,20.1019996 C18.4056479,19.9831568 18.813072,19.9663638 19.2910267,20.0645382 C19.7692397,20.1627127 20.1368773,20.3386517 20.1125921,20.4574945 C20.0880484,20.5765956 19.6808827,20.5931303 19.2026697,20.4949558 Z M17.8109172,17.5109684 C17.6967248,17.4693734 17.7396116,17.0637578 17.9065082,16.6051796 C18.0731464,16.1463431 18.3007562,15.8081579 18.4149486,15.8494945 C18.5288827,15.8910895 18.4862543,16.2964467 18.3193577,16.7552832 C18.1524611,17.2141198 17.9248513,17.552305 17.8109172,17.5109684 Z M16.9797928,22.6281839 C16.5070052,22.7488352 16.0993227,22.7516771 16.0690953,22.634126 C16.0391263,22.516575 16.3982382,22.323068 16.8710258,22.2024167 C17.3440718,22.0815071 17.7517542,22.0789235 17.7817233,22.1964745 C17.8116923,22.3140256 17.4528388,22.5072743 16.9797928,22.6281839 Z M16.2840458,24.435111 C16.2016309,24.5242431 15.8440691,24.3286692 15.4852155,23.9979762 C15.1261036,23.6672832 14.9018524,23.3270312 14.984009,23.2376407 C15.0661655,23.1482503 15.4237273,23.3440825 15.7828392,23.6747755 C16.1416928,24.0054685 16.3662023,24.3459789 16.2840458,24.435111 Z M15.600183,18.8089383 C15.6304104,18.9264893 15.2712985,19.1199964 14.7982525,19.2406477 C14.3254649,19.3615573 13.9177825,19.3641408 13.8878134,19.2465898 C13.857586,19.1290388 14.2166979,18.9357901 14.6894855,18.8148805 C15.1622732,18.6942292 15.5702139,18.6913873 15.600183,18.8089383 Z M16.6242978,19.3571653 C16.7371985,19.3129868 16.9733339,19.6452299 17.1513398,20.0999327 C17.3296039,20.5541189 17.3825665,20.9584427 17.2694075,21.0026212 C17.1565068,21.0470581 16.9203714,20.7145566 16.7423656,20.2601121 C16.5641014,19.8056676 16.5113972,19.4013438 16.6242978,19.3571653 Z M15.8141,17.4944337 C15.3413124,17.6153434 14.9333716,17.6179269 14.9034026,17.5003759 C14.8734335,17.3828248 15.2322871,17.1895761 15.705333,17.0686665 C16.178379,16.9477569 16.5860614,16.9451734 16.6160305,17.0627244 C16.6459996,17.1802754 16.287146,17.3735241 15.8141,17.4944337 Z M14.5440323,21.2033622 C14.0660776,21.1051877 13.6981817,20.9289904 13.7224669,20.8104059 C13.7467522,20.6913048 14.1544346,20.6747701 14.6323893,20.7726863 C15.1106024,20.8708607 15.4784983,21.0467997 15.4539547,21.1656425 C15.4296694,21.2844853 15.0222453,21.3012783 14.5440323,21.2033622 Z M11.9271657,19.4607652 C12.0403247,19.4165867 12.2762018,19.7490881 12.454466,20.2035326 C12.6327302,20.6579771 12.6856928,21.0620426 12.5725338,21.1064795 C12.4596331,21.150658 12.2234976,20.8181565 12.0454918,20.363712 C11.8672276,19.9095259 11.8142651,19.5052021 11.9271657,19.4607652 Z M12.8585315,22.6369679 C12.3854855,22.7578776 11.9778031,22.7604611 11.947834,22.6429101 C11.9176066,22.525359 12.2767185,22.3321103 12.7495062,22.2112007 C13.2225521,22.0902911 13.6302346,22.0877076 13.660462,22.2052586 C13.690431,22.3228096 13.3315775,22.5160583 12.8585315,22.6369679 Z M12.1625261,24.443895 C12.0803696,24.5332855 11.7228078,24.3374532 11.3636959,24.0070186 C11.004584,23.6760673 10.7803328,23.3355569 10.8624893,23.2464248 C10.9446459,23.1570343 11.302466,23.3528666 11.6613196,23.6838179 C12.0204315,24.0142525 12.244941,24.354763 12.1625261,24.443895 Z M9.60120565,20.81919 C9.62549092,20.7003472 10.032915,20.6835542 10.5111281,20.7817286 C10.9890828,20.8799031 11.3569787,21.0555838 11.3326934,21.1746849 C11.3084082,21.2935277 10.9009841,21.3103207 10.422771,21.2121462 C9.94455797,21.1139717 9.57666203,20.9380327 9.60120565,20.81919 Z M5.30555551,16.7950697 C5.07768737,16.261569 5.13039157,15.9933976 5.21616506,15.7218677 C5.25620991,15.5955326 5.28488719,15.5040754 5.25078448,15.311085 C5.22133214,15.1452218 5.14563445,15.0715909 5.02059116,14.9488728 C4.80951603,14.7427064 4.52067638,14.460584 4.55348733,13.7371931 C4.58526486,13.0336954 5.02394976,12.7073945 5.34456694,12.4691922 C5.58819466,12.2880861 5.72770576,12.1764772 5.76025835,11.9920126 C5.79616954,11.7897215 5.69024445,11.5853635 5.56804306,11.3487114 C5.37815295,10.9818488 5.11850729,10.4788338 5.45385064,9.86343485 C5.77989325,9.26508724 6.46246423,8.96772191 7.01094954,8.72900292 C7.25896928,8.62101099 7.53979996,8.49855124 7.61343081,8.40967751 C7.68292801,8.3262292 7.75655887,8.10146131 7.82734784,7.88392734 C8.00690379,7.33544203 8.25233999,6.58414891 8.9504122,6.12376228 C9.630658,5.67551828 10.2917856,5.86876699 10.7294371,5.99716887 C10.8632644,6.03643866 11.0647804,6.09586006 11.1229101,6.07906706 C11.193699,6.03101323 11.293682,5.8664418 11.3905647,5.70729581 C11.6267002,5.31976497 11.9499009,4.78858937 12.6329886,4.6712967 C13.317368,4.55356669 13.6341099,4.95135232 13.8229666,5.18929625 C13.9319919,5.32648217 13.9898632,5.39158735 14.0485095,5.39727114 C14.1304077,5.40605517 14.2562261,5.29909666 14.4032294,5.17612021 C14.6894855,4.93714286 15.0816667,4.60903342 15.7562288,4.55762099 C16.56746,4.49923301 16.8668921,5.08388787 17.0864929,5.51275533 C17.2203203,5.77395111 17.3466553,6.02042072 17.5528217,6.12763759 C17.8104005,6.2614649 18.0274178,6.24493025 18.2787961,6.22632877 C18.6019969,6.20204351 19.0037372,6.17207446 19.4442305,6.50431756 C20.0769392,6.98123884 20.0707387,8.223146 20.0281103,8.81710159 C19.8265943,8.61971922 19.6155192,8.43396277 19.3959184,8.25983225 C19.403669,8.26551603 19.411678,8.27042476 19.4191702,8.2763669 C19.4176201,8.23580534 19.4145198,8.19550213 19.4119363,8.15519892 C19.3819673,7.69584571 19.286118,7.27137026 19.0866688,7.1210083 C18.8438161,6.93809374 18.6534093,6.95204485 18.3658614,6.97374658 C18.0744382,6.99544831 17.7119677,7.02283382 17.2885257,6.80297466 C16.8955694,6.59887508 16.7064544,6.23020408 16.5400745,5.90467818 C16.3016138,5.43938282 16.1897466,5.27636152 15.8443274,5.3050388 C15.3798071,5.34069163 15.1168029,5.56029244 14.8625826,5.77265934 C14.624122,5.97185019 14.3794609,6.17775824 14.0229325,6.14365553 C13.6803552,6.11006952 13.4876232,5.86721686 13.346562,5.69024445 C13.1770819,5.47684414 13.0843328,5.3582597 12.7823171,5.41096389 C12.3937529,5.47787755 12.1976623,5.7997865 11.9899457,6.14107199 C11.8491429,6.37229872 11.716349,6.59060776 11.5143162,6.72391837 C11.2321938,6.90993317 10.9022758,6.81356717 10.5829504,6.71978471 C10.3664499,6.656488 10.1463324,6.59189953 9.92156448,6.59189953 C9.73425791,6.59189953 9.54385109,6.63685311 9.35034402,6.76447993 C8.84371204,7.09853151 8.64762144,7.69842924 8.49002557,8.18025925 C8.39159273,8.48124153 8.3065943,8.7414039 8.15752411,8.92121821 C7.98365194,9.13074322 7.6723355,9.26637901 7.31141512,9.42345817 C6.83139359,9.63272483 6.28704194,9.86963534 6.06899125,10.2700839 C5.90803678,10.5653824 5.99975241,10.7712904 6.18990087,11.1391864 C6.34465486,11.4383602 6.51981879,11.7773205 6.44541287,12.1979206 C6.36583987,12.6487481 6.05168154,12.8825584 5.77446782,13.0887248 C5.45901772,13.3233102 5.26473559,13.4860731 5.24794259,13.8588778 C5.22856605,14.2880036 5.34379188,14.4006459 5.51766405,14.5709011 C5.67448486,14.724105 5.8698004,14.9147701 5.935939,15.2886082 C5.99820229,15.6404862 5.93051357,15.8551783 5.88090962,16.0119991 C5.82898049,16.1765705 5.79746131,16.2762951 5.94782328,16.6284315 C6.08268401,16.9438816 6.39606728,17.1510814 6.67922314,17.2825835 C6.76396322,17.5269863 6.86136264,17.7677721 6.97012963,18.0044243 C6.66811393,17.9287266 5.65743351,17.6184436 5.30555551,16.7950697 Z M21.7515891,18.1111118 C21.8730155,18.113708 21.9634393,18.5113146 21.9536219,18.9990868 C21.9435461,19.4871173 21.8371043,19.8808486 21.7159363,19.8782777 C21.59451,19.8759399 21.5040861,19.4783333 21.5141619,18.9903028 C21.5239794,18.5022723 21.6304212,18.1085409 21.7515891,18.1111118 Z M26.6822732,10.837429 C26.7708885,11.1332442 26.8496865,11.4334514 26.9168585,11.7377923 C26.9532864,11.9026221 26.8489114,12.0659018 26.6840816,12.1020713 C26.5182184,12.1390159 26.3559722,12.0343826 26.3198026,11.8695528 C26.2174945,11.4052909 26.0878009,10.9511047 25.9335636,10.5085445 C22.7025898,8.97624759 20.099416,6.33328728 18.6151729,3.07596143 C17.8641381,2.79978112 17.0808092,2.59464813 16.2726782,2.47218838 C9.64925948,1.46874187 3.44721597,6.04108903 2.44428616,12.6629576 C1.44135636,19.2850845 6.01292846,25.4884198 12.6350554,26.4910913 C16.2584687,27.0413851 19.8966082,25.9420893 22.6155246,23.4781682 C22.7408262,23.3644925 22.9343333,23.3745683 23.0474923,23.4993532 C23.1606513,23.6246549 23.1513505,23.8179036 23.0263072,23.9313209 C20.6530684,26.081342 17.6137932,27.241351 14.4701431,27.241351 C13.8307172,27.241351 13.1871577,27.1932972 12.5435981,27.0958977 C5.58819466,26.0423306 0.78617089,19.5266454 1.83973806,12.571242 C2.89304687,5.61609688 9.40847365,0.815623234 16.3641355,1.86764028 C17.024488,1.96762323 17.6695977,2.11979368 18.2948141,2.31898453 C18.0519614,1.69816013 17.8481202,1.05770083 17.6879408,0.400448531 C17.3363211,0.319842117 16.9805678,0.247761381 16.617839,0.192732003 C8.72616102,-1.0024131 1.35997488,4.42637721 0.164829782,12.3177968 C-1.03005696,20.2092164 4.39847499,27.5756609 12.2898946,28.770806 C19.1207715,29.8049966 25.5545584,25.8751756 27.9365813,19.6826912 C27.3818955,19.5524808 26.8706131,19.2124871 26.374832,18.8815358 C26.2267952,18.7828446 26.0810837,18.6854452 25.9379556,18.5968298 L21.5883095,15.8275344 C21.4702418,15.7546786 21.3999695,15.6645131 21.3867935,15.5681471 C21.3793012,15.5149262 21.3855017,15.4348365 21.4586158,15.3544885 C21.6051025,15.1904337 21.80481,15.3144436 21.8903252,15.3674061 L25.1321498,17.1828589 L22.047146,15.0793416 C21.9324369,15.0085526 21.862423,14.9183871 21.8487302,14.8217627 C21.8414963,14.7685418 21.8479551,14.6884521 21.9208109,14.6083624 C22.0670392,14.4443077 22.2670052,14.5680592 22.3522619,14.6212801 L25.5948616,16.4369913 L22.512183,14.3347656 C22.3972155,14.2639767 22.3272016,14.1735528 22.3137672,14.0769285 C22.3062749,14.0237076 22.3127338,13.9438762 22.3855896,13.8637865 C22.5318179,13.6999901 22.7317838,13.8237416 22.8170406,13.8769625 L26.5027172,15.9375932 L23.0415501,13.4948571 C22.9622355,13.4462866 22.7622696,13.3227935 22.8441678,13.1171438 C22.8829208,13.0171608 22.951643,12.9758242 23.0025387,12.9587728 C23.0950294,12.9277704 23.2066383,12.9502471 23.3257394,13.023878 L27.7353236,15.6800144 C27.7621924,15.6970657 28.0797094,15.8965149 28.2292963,15.9851303 C28.4132442,16.0938973 28.599259,16.2065396 28.7834654,16.3230572 C28.9973824,14.6623584 28.917551,13.0290451 28.586858,11.4747881 C27.933481,11.3047912 27.2984472,11.0898408 26.6822732,10.837429 L26.6822732,10.837429 Z" id="Fill-19" fill="#002684" mask="url(#mask-4)"></path>
            </g>
        </g>
    </g>
</svg>