<?xml version="1.0" encoding="UTF-8"?>
<svg width="56px" height="56px" viewBox="0 0 56 56" version="1.1" xmlns="http://www.w3.org/2000/svg" xmlns:xlink="http://www.w3.org/1999/xlink">
    <!-- Generator: Sketch 55.2 (78181) - https://sketchapp.com -->
    <title>Icon_Box With Food</title>
    <desc>Created with Sketch.</desc>
    <defs>
        <polygon id="path-1" points="0.106666667 0.689777778 23.1696889 0.689777778 23.1696889 26.178963 0.106666667 26.178963"></polygon>
        <polygon id="path-3" points="0.533333333 0.104888889 37.6408889 0.104888889 37.6408889 26.56 0.533333333 26.56"></polygon>
    </defs>
    <g id="Icon_Box-With-Food" stroke="none" stroke-width="1" fill="none" fillRule="evenodd">
        <g id="200713_Icons_rgb_recipe-cards">
            <rect id="Rectangle" x="0" y="0" width="56" height="56"></rect>
        </g>
        <g id="box-icon" transform="translate(4.000000, 2.000000)">
            <g id="Group-4">
                <mask id="mask-2" fill="white">
                    <use xlink:href="#path-1"></use>
                </mask>
                <g id="Clip-2"></g>
                <path d="M8.768,0.689777778 L8.72177778,0.812444444 C8.67911111,0.929777778 8.64177778,1.04888889 8.60622222,1.16977778 C8.55288889,1.35822222 8.50311111,1.55022222 8.46222222,1.74222222 C8.40533333,1.99822222 8.35911111,2.25777778 8.32177778,2.51733333 C8.27733333,2.83555556 8.24533333,3.15377778 8.22755556,3.47555556 C8.20444444,3.84711111 8.20088889,4.22222222 8.21155556,4.59733333 C8.22577778,5.02222222 8.26133333,5.44711111 8.31644444,5.86844444 C8.37688889,6.33955556 8.464,6.80888889 8.57422222,7.27111111 C8.69688889,7.78488889 8.84977778,8.28977778 9.02577778,8.78755556 C9.22311111,9.33688889 9.45066667,9.87555556 9.70844444,10.4017778 C9.99288889,10.9831111 10.3093333,11.5466667 10.6577778,12.0942222 C11.0417778,12.7004444 11.4631111,13.2871111 11.9111111,13.8488889 C12.4106667,14.4746667 12.944,15.0755556 13.5057778,15.648 C14.1333333,16.2897778 14.7946667,16.8977778 15.4808889,17.4755556 C15.6906667,17.6533333 15.904,17.8275556 16.1173333,17.9982222 C16.2275556,18.0853333 16.336,18.1724444 16.4444444,18.256 C16.6133333,18.3893333 16.768,18.4835556 16.9635556,18.5688889 C17.1466667,18.6488889 17.3031111,18.8 17.392,18.9777778 C17.5093333,19.2142222 17.5608889,19.5982222 17.4631111,19.8488889 C17.4631111,19.8488889 16.416,23.4204444 16.4337778,23.8951111 C16.4337778,23.8951111 16.1582222,25.1857778 17.2977778,23.9004444 C17.2977778,23.9004444 18.8462222,21.2017778 22.4035556,21.3955556 C22.4035556,21.3955556 24.0764444,21.4808889 22.4782222,20.5831111 C22.4782222,20.5831111 20.3306667,19.6106667 19.4293333,19.1893333 C19.4293333,19.1893333 18.3431111,18.6115556 18.4248889,17.7031111 C18.4248889,17.7031111 19.0471111,2.62577778 8.768,0.689777778" id="Fill-1" fill="#002856" mask="url(#mask-2)"></path>
                <path d="M5.97511111,17.5288889 C5.97511111,17.5288889 7.62666667,17.2622222 10.3057778,22.24 C10.3057778,22.24 10.9742222,23.8417778 14.1564444,25.7351111 C14.1564444,25.7351111 14.4088889,25.9502222 14.3004444,26.1031111 C14.3004444,26.1031111 14.32,26.2737778 13.8986667,26.1031111 C13.8986667,26.1031111 10.1955556,23.5502222 8.76266667,23.4844444 C8.76266667,23.4844444 7.81688889,23.504 6.88888889,24.1653333 C6.88888889,24.1653333 5.19822222,25.8595556 3.07911111,25.2835556 C3.07911111,25.2835556 2.84266667,23.5128889 6.27555556,23.4008889 C6.27555556,23.4008889 7.73688889,23.3848889 8.22577778,23.0755556 C8.22577778,23.0755556 8.87111111,22.9208889 7.93422222,22.3946667 C7.93422222,22.3946667 6.85511111,21.6266667 5.6,21.8577778 C5.6,21.8577778 2.60622222,22.9404444 0,20.9173333 C0,20.9173333 0.711111111,18.6471111 5.79022222,21.264 C5.79022222,21.264 5.54844444,20.3324444 2.82666667,19.7564444 C2.82666667,19.7564444 0.161777778,18.9084444 0.332444444,17.3795556 C0.332444444,17.3795556 1.73511111,16.8675556 4.84444444,19.7671111 C4.84444444,19.7671111 7.66755556,21.9857778 10.3004444,23.3582222 C10.3004444,23.3582222 10.7982222,22.7448889 8.59022222,21.5591111 C8.59022222,21.5591111 5.50933333,19.5911111 5.97511111,17.5288889" id="Fill-3" fill="#002856" mask="url(#mask-2)"></path>
            </g>
            <path d="M30.9653333,13.6995556 C30.3626667,13.5768889 30.5564444,12.6417778 31.1555556,12.7644444 C31.7582222,12.8871111 31.568,13.8222222 30.9653333,13.6995556 Z M30.3075556,18.3626667 C29.7048889,18.2382222 29.8968889,17.3031111 30.4977778,17.4257778 C31.1004444,17.5502222 30.9084444,18.4835556 30.3075556,18.3626667 Z M27.2693333,15.6711111 C26.6666667,15.5484444 26.8586667,14.6133333 27.4595556,14.7342222 C28.0622222,14.8586667 27.872,15.7937778 27.2693333,15.6711111 Z M32.4195556,14.1955556 C32.6986667,13.1893333 33.0204444,11.9182222 32.2204444,11.0364444 C32.2204444,11.0364444 31.7635556,10.4728889 30.8568889,10.1831111 C27.632,9.15733333 25.552,13.5822222 25.1306667,16.0728889 C24.9244444,17.2942222 25.1288889,18.5742222 26.1191111,19.408 C27.4648889,20.544 29.6213333,20.6613333 31.0133333,19.5466667 C31.5093333,19.1484444 31.9235556,18.6008889 32.1848889,18.0213333 C32.3324444,17.6906667 32.432,17.3368889 32.4746667,16.976 C32.5831111,16.0231111 32.1582222,15.1431111 32.4195556,14.1955556 L32.4195556,14.1955556 Z" id="Fill-5" fill="#002856"></path>
            <path d="M46.6666667,22.7751111 L38.8035556,18.6364444 C38.7733333,18.6204444 38.736,18.6186667 38.704,18.6311111 L26.5351111,23.5502222 C26.4995556,23.5644444 26.4906667,23.5982222 26.48,23.6284444 L34.5031111,27.7226667 L46.6666667,22.7751111" id="Fill-6" fill="#002856"></path>
            <path d="M24.1422222,24.496 L11.4524444,29.2675556 L9.15377778,30.1653333 L9.02755556,30.1955556 L6.36977778,31.2124444 L6.34844444,31.2711111 L3.59288889,39.1306667 C3.58044444,39.1697778 3.59288889,39.2053333 3.616,39.2302222 L21.2266667,32.336 L24.1422222,24.496" id="Fill-7" fill="#002856"></path>
            <g id="Group-11" transform="translate(8.888889, 24.888889)">
                <mask id="mask-4" fill="white">
                    <use xlink:href="#path-3"></use>
                </mask>
                <g id="Clip-9"></g>
                <path d="M37.5946667,14.1048889 L32.6346667,1.40266667 C32.6222222,1.37244444 32.5848889,1.38311111 32.56,1.36888889 L25.5555556,4.21688889 L17.8311111,0.277333333 L25.5608889,20.0675556 L37.6408889,14.2204444 L37.5946667,14.1048889" id="Fill-8" fill="#002856" mask="url(#mask-4)"></path>
                <path d="M19.2248889,15.1804444 L20.1333333,17.5448889 C20.1333333,17.5448889 19.6408889,18.7591111 18.1208889,19.3422222 C16.6026667,19.9253333 15.4008889,19.296 15.4008889,19.296 L14.5137778,16.9902222 C15.5662222,15.6071111 14.6435556,13.9075556 14.4355556,13.1573333 C14.5848889,13.0435556 14.7431111,12.944 14.9048889,12.8515556 L15.408,13.9555556 L16.5297778,13.5235556 L16.1635556,12.3662222 C16.3484444,12.3253333 16.5333333,12.2968889 16.7164444,12.2808889 C17.0648889,12.976 17.52,14.8551111 19.2248889,15.1804444 Z M13.3226667,8.416 L0.533333333,13.4222222 L5.70666667,26.6666667 L5.82577778,26.6275556 L24.4,20.5582222 L16.4142222,0.104888889 L13.3226667,8.416 L13.3226667,8.416 Z" id="Fill-10" fill="#002856" mask="url(#mask-4)"></path>
            </g>
        </g>
    </g>
</svg>