<?xml version="1.0" encoding="UTF-8"?>
<svg width="56px" height="56px" viewBox="0 0 56 56" version="1.1" xmlns="http://www.w3.org/2000/svg" xmlns:xlink="http://www.w3.org/1999/xlink">
    <!-- Generator: Sketch 55.2 (78181) - https://sketchapp.com -->
    <title>Icon_Delivery Package</title>
    <desc>Created with Sketch.</desc>
    <defs>
        <polygon id="path-1" points="0.109565217 0.0956521739 47.8069565 0.0956521739 47.8069565 4.36869565 0.109565217 4.36869565"></polygon>
    </defs>
    <g id="Icon_Delivery-Package" stroke="none" stroke-width="1" fill="none" fillRule="evenodd">
        <g id="200713_Icons_rgb_recipe-cards">
            <rect id="Rectangle" x="0" y="0" width="56" height="56"></rect>
        </g>
        <g id="delivery-icon" transform="translate(4.000000, 9.000000)">
            <g id="Group-4" transform="translate(0.000000, 37.521739)">
                <mask id="mask-2" fill="white">
                    <use xlink:href="#path-1"></use>
                </mask>
                <g id="Clip-2"></g>
                <path d="M28.286087,4.45269565 L0.31773913,4.45269565 C0.142434783,4.45269565 0,4.31208696 0,4.13495652 L0,1.91991304 C0,1.7446087 0.142434783,1.60217391 0.31773913,1.60217391 L28.286087,1.60217391 C28.4613913,1.60217391 28.6038261,1.7446087 28.6038261,1.91991304 L28.6038261,4.13495652 C28.6038261,4.31208696 28.4613913,4.45269565 28.286087,4.45269565" id="Fill-1" fill="#002856" mask="url(#mask-2)"></path>
                <path d="M39.2681739,1.88156522 C37.8109565,1.88156522 36.4998261,1.73547826 35.3932174,1.53826087 C33.2256522,1.15295652 31.5474783,0.533913043 30.5650435,0.11026087 L30.5650435,3.97243478 C30.5650435,4.25182609 30.7914783,4.47826087 31.0726957,4.47826087 L47.3011304,4.47826087 C47.5805217,4.47826087 47.8069565,4.25182609 47.8069565,3.97243478 L47.8069565,0.0956521739 C44.7245217,1.43782609 41.7790435,1.88156522 39.2681739,1.88156522" id="Fill-3" fill="#002856" mask="url(#mask-2)"></path>
            </g>
            <path d="M37.6246957,34.3286087 C38.5797391,33.7369565 38.4172174,32.4970435 38.4665217,31.9948696 C38.5815652,31.962 38.7002609,31.9382609 38.8207826,31.92 L38.8664348,32.7052174 L39.6443478,32.7052174 L39.6918261,31.92 C39.8141739,31.9382609 39.9310435,31.9638261 40.047913,31.9966957 C40.0953913,32.4970435 39.9328696,33.7369565 40.887913,34.3286087 L40.887913,35.9684348 C40.887913,35.9684348 40.3072174,36.5856522 39.2553913,36.5856522 C38.2035652,36.5856522 37.6246957,35.9264348 37.6246957,35.9264348 L37.6246957,34.3286087 Z M47.8069565,36.414 L47.8069565,30.6216522 C47.8069565,30.344087 47.5805217,30.1176522 47.3011304,30.1176522 L31.0726957,30.1176522 C30.7914783,30.1176522 30.5650435,30.344087 30.5650435,30.6216522 L30.5650435,36.435913 C31.3593913,36.8084348 33.1745217,37.5662609 35.6251304,37.9953913 C38.5669565,38.514 43.0353913,38.6235652 47.8069565,36.414 L47.8069565,36.414 Z" id="Fill-5" fill="#002856"></path>
            <path d="M30.1213043,36.2167826 L30.1213043,36.2167826" id="Fill-6" fill="#FFFFFE"></path>
            <polygon id="Fill-7" fill="#002856" points="6.43513043 34.3468696 12.2293043 34.3468696 12.2293043 21.9678261 6.43513043 21.9678261"></polygon>
            <polygon id="Fill-8" fill="#002856" points="16.5553043 34.3468696 22.3494783 34.3468696 22.3494783 21.9678261 16.5553043 21.9678261"></polygon>
            <polygon id="Fill-9" fill="#002856" points="6.43513043 14.1996522 12.2293043 14.1996522 12.2293043 4.0593913 6.43513043 4.0593913"></polygon>
            <g id="Group-13" transform="translate(1.826087, 0.000000)" fill="#002856">
                <polygon id="Fill-10" points="14.7292174 14.1996522 20.5233913 14.1996522 20.5233913 4.0593913 14.7292174 4.0593913"></polygon>
                <path d="M13.4345217,15.4943478 L21.818087,15.4943478 L21.818087,2.76469565 L13.4345217,2.76469565 L13.4345217,15.4943478 Z M19.4350435,18.0837391 C19.4350435,17.4774783 19.9262609,16.988087 20.5306957,16.988087 C21.1351304,16.988087 21.6263478,17.4774783 21.6263478,18.0837391 C21.6263478,18.6881739 21.1351304,19.1793913 20.5306957,19.1793913 C19.9262609,19.1793913 19.4350435,18.6881739 19.4350435,18.0837391 Z M13.4345217,35.6415652 L21.818087,35.6415652 L21.818087,20.6731304 L13.4345217,20.6731304 L13.4345217,35.6415652 Z M3.31434783,15.4943478 L11.697913,15.4943478 L11.697913,2.76469565 L3.31434783,2.76469565 L3.31434783,15.4943478 Z M3.31434783,35.6415652 L11.697913,35.6415652 L11.697913,20.6731304 L3.31434783,20.6731304 L3.31434783,35.6415652 Z M0.971478261,0.328695652 C0.885652174,0.328695652 0.814434783,0.399913043 0.814434783,0.48573913 L0.814434783,37.7835652 L24.717913,37.7835652 L24.717913,0.48573913 C24.717913,0.399913043 24.6485217,0.328695652 24.5608696,0.328695652 L0.971478261,0.328695652 Z" id="Fill-12"></path>
            </g>
        </g>
    </g>
</svg>