<?xml version="1.0" encoding="UTF-8"?>
<svg width="56px" height="56px" viewBox="0 0 56 56" version="1.1" xmlns="http://www.w3.org/2000/svg" xmlns:xlink="http://www.w3.org/1999/xlink">
    <!-- Generator: Sketch 55.2 (78181) - https://sketchapp.com -->
    <title>Icon_Timer</title>
    <desc>Created with Sketch.</desc>
    <defs>
        <polygon id="path-1" points="0.0888888889 1.17185185 38.2533333 1.17185185 38.2533333 39.99971 0.0888888889 39.99971"></polygon>
    </defs>
    <g id="Icon_Timer" stroke="none" stroke-width="1" fill="none" fillRule="evenodd">
        <g id="200713_Icons_rgb_recipe-cards">
            <rect id="Rectangle" x="0" y="0" width="56" height="56"></rect>
        </g>
        <g id="clock-icon" transform="translate(9.000000, 10.000000)">
            <path d="M27.2488889,12.9081481 C27.1422222,12.9140741 27.0281481,12.9644444 26.9333333,13.0755556 L21.8696296,18.9155556 C21.0444444,19.8681481 21.1466667,21.2874074 22.082963,21.8548148 C22.36,22.0222222 22.6666667,22.0903704 22.9748148,22.0740741 C23.7081481,22.0355556 24.4444444,21.5140741 24.7688889,20.6903704 L27.6044444,13.4874074 C27.7362963,13.1540741 27.5096296,12.8948148 27.2488889,12.9081481" id="Fill-1" fill="#174A77"></path>
            <g id="Group-6">
                <mask id="mask-2" fill="white">
                    <use xlink:href="#path-1"></use>
                </mask>
                <g id="Clip-3"></g>
                <path d="M27.2488889,12.9081481 C27.5096296,12.8948148 27.7362963,13.1540741 27.6044444,13.4874074 L24.7688889,20.6903704 C24.4444444,21.5140741 23.7081481,22.0355556 22.9748148,22.0740741 C22.6666667,22.0903704 22.36,22.0222222 22.082963,21.8548148 C21.1466667,21.2874074 21.0444444,19.8681481 21.8696296,18.9155556 L26.9333333,13.0755556 C27.0281481,12.9644444 27.1422222,12.9140741 27.2488889,12.9081481" id="Fill-2" fill="#002856" mask="url(#mask-2)"></path>
                <path d="M6.41925926,20.7274074 C6.4237037,19.8844444 6.49037037,19.0340741 6.6162963,18.2014815 C6.73925926,17.3851852 6.92296296,16.5688889 7.16148148,15.7762963 C7.32,15.2518519 7.50222222,14.7362963 7.70666667,14.2311111 C8.01185185,13.4785185 8.37185185,12.7422222 8.77481481,12.04 C9.1762963,11.3422222 9.62814815,10.6651852 10.1185185,10.0281481 C10.4459259,9.60444444 10.7925926,9.19407407 11.157037,8.80148148 C12.4414815,7.41185185 13.917037,6.25481481 15.5437037,5.36 C16.4874074,4.84148148 17.4785185,4.41333333 18.4903704,4.09185185 C19.2651852,3.84444444 20.0622222,3.65481481 20.8577778,3.52888889 C21.3985185,3.44444444 21.9451852,3.38666667 22.4992593,3.35703704 C23.1348148,3.32888889 23.6118519,3.32888889 24.1333333,3.35407407 L24.4059259,3.35851852 C24.5511111,3.36 24.6992593,3.36148148 24.72,3.36296296 C24.7422222,3.36444444 24.7985185,3.37037037 24.8518519,3.3762963 L24.4237037,3.14518519 L24.0933333,2.96888889 C23.8651852,2.84592593 23.6296296,2.73037037 23.3940741,2.61925926 C23.3674074,2.60592593 23.3422222,2.59111111 23.3155556,2.57925926 C23.2977778,2.57185185 23.28,2.56444444 23.2637037,2.55851852 C23.0562963,2.46222222 22.8444444,2.37037037 22.6311111,2.28444444 C22.5807407,2.2637037 22.5303704,2.24592593 22.4814815,2.22518519 C22.28,2.14666667 22.0785185,2.07111111 21.8725926,2.00148148 C21.8444444,1.99259259 21.8192593,1.98222222 21.7911111,1.97185185 C21.5674074,1.89777778 21.3392593,1.82814815 21.1096296,1.76296296 C21.0548148,1.74814815 21.0014815,1.73185185 20.9466667,1.71703704 C20.7155556,1.65481481 20.4814815,1.59555556 20.2459259,1.54222222 C20.2192593,1.53777778 20.1925926,1.53185185 20.1674074,1.52592593 C19.9466667,1.47851852 19.7244444,1.43703704 19.5007407,1.39851852 C19.4503704,1.38962963 19.4,1.38074074 19.3481481,1.37185185 C19.1096296,1.33333333 18.8681481,1.30074074 18.6251852,1.27259259 C18.5762963,1.26666667 18.5274074,1.26222222 18.4785185,1.25777778 C18.2518519,1.23407407 18.0237037,1.2162963 17.7940741,1.20148148 C17.76,1.2 17.7274074,1.19703704 17.6948148,1.19555556 C17.442963,1.18222222 17.1911111,1.17481481 16.9362963,1.17333333 C16.9096296,1.17333333 16.882963,1.17185185 16.8562963,1.17185185 C16.8266667,1.17185185 16.7955556,1.17333333 16.7644444,1.17333333 C16.5140741,1.17481481 16.2607407,1.17925926 16.0074074,1.19259259 C15.7333333,1.20592593 15.4607407,1.22814815 15.1911111,1.25481481 C15.0518519,1.26814815 14.9155556,1.28888889 14.7777778,1.30666667 C14.6459259,1.32296296 14.5140741,1.3362963 14.3837037,1.35555556 C14.2533333,1.3762963 14.1259259,1.40148148 13.997037,1.4237037 C13.8607407,1.44740741 13.722963,1.46962963 13.5866667,1.4962963 C13.4725926,1.52 13.3614815,1.54814815 13.2474074,1.57333333 C13.0992593,1.60592593 12.9496296,1.63703704 12.802963,1.67407407 C12.8,1.67555556 12.7955556,1.67555556 12.7940741,1.67703704 C12.5511111,1.73777778 12.3111111,1.80592593 12.0725926,1.87703704 C12,1.89925926 11.9288889,1.92444444 11.8562963,1.94666667 C11.6888889,2 11.5214815,2.05333333 11.3555556,2.11259259 C11.2637037,2.14518519 11.1718519,2.18074074 11.0814815,2.21333333 C10.9377778,2.26666667 10.7925926,2.32148148 10.6518519,2.37777778 C10.5525926,2.41777778 10.4562963,2.45925926 10.3585185,2.50074074 C10.2740741,2.53777778 10.1881481,2.57037037 10.1037037,2.60888889 C10.0518519,2.63111111 10.002963,2.6562963 9.95259259,2.68 C9.86814815,2.71703704 9.78518519,2.75703704 9.70222222,2.79703704 C9.56,2.8637037 9.42074074,2.93185185 9.28296296,3.00296296 C9.20444444,3.04444444 9.12444444,3.08296296 9.04740741,3.12444444 C8.89185185,3.20740741 8.73925926,3.29333333 8.58666667,3.37925926 C8.52888889,3.41185185 8.47259259,3.44296296 8.41481481,3.47703704 C8.2162963,3.59259259 8.01925926,3.71259259 7.82518519,3.83851852 C7.81777778,3.84296296 7.81037037,3.84740741 7.80296296,3.85333333 C7.75555556,3.88444444 7.70814815,3.91555556 7.66074074,3.94666667 C7.50666667,4.04888889 7.35111111,4.15407407 7.2,4.26074074 C7.12888889,4.31111111 7.05925926,4.36296296 6.98962963,4.41333333 C6.8637037,4.50518519 6.7362963,4.59851852 6.61185185,4.69481481 C6.53777778,4.75259259 6.46518519,4.81037037 6.39259259,4.86962963 C6.27407407,4.96444444 6.15703704,5.05925926 6.04,5.15703704 C5.96888889,5.21777778 5.89777778,5.27703704 5.82666667,5.33925926 C5.78962963,5.37037037 5.75259259,5.40148148 5.71555556,5.43407407 C5.65037037,5.49185185 5.58962963,5.55111111 5.52592593,5.60888889 C5.43111111,5.6962963 5.33777778,5.78222222 5.24444444,5.87111111 C5.14962963,5.96148148 5.0562963,6.05333333 4.96444444,6.14666667 C4.87407407,6.23555556 4.78518519,6.32444444 4.69777778,6.4162963 C4.60740741,6.51111111 4.51851852,6.60888889 4.42962963,6.70666667 C4.3437037,6.79851852 4.25925926,6.89185185 4.1762963,6.98666667 C4.09037037,7.08592593 4.00592593,7.18518519 3.92148148,7.28592593 C3.84,7.3837037 3.75851852,7.48148148 3.67851852,7.58222222 C3.65333333,7.61481481 3.62518519,7.64592593 3.59851852,7.67851852 C3.53037037,7.76592593 3.46518519,7.8562963 3.39703704,7.94518519 C3.34666667,8.01185185 3.29481481,8.07851852 3.24592593,8.14518519 C3.12740741,8.30962963 3.01037037,8.47555556 2.8962963,8.64296296 C2.87555556,8.67407407 2.85333333,8.70518519 2.83111111,8.73777778 C2.69777778,8.93777778 2.56888889,9.14074074 2.44296296,9.34814815 C2.40740741,9.40740741 2.37333333,9.46814815 2.33777778,9.52888889 C2.25037037,9.67555556 2.16444444,9.82518519 2.08148148,9.97481481 C2.03851852,10.0533333 1.99703704,10.1318519 1.95703704,10.2118519 C1.88444444,10.3466667 1.81333333,10.4844444 1.74518519,10.6222222 C1.7037037,10.7066667 1.6637037,10.7911111 1.6237037,10.8755556 C1.55851852,11.0133333 1.4962963,11.1511111 1.43407407,11.2918519 C1.39703704,11.3762963 1.36,11.4592593 1.32444444,11.5437037 C1.26222222,11.6933333 1.20296296,11.8459259 1.14518519,11.9985185 C1.11555556,12.0725926 1.08592593,12.1466667 1.05777778,12.2222222 C0.982222222,12.4296296 0.911111111,12.6385185 0.842962963,12.8503704 C0.835555556,12.8696296 0.828148148,12.8903704 0.822222222,12.9111111 C0.74962963,13.1422222 0.681481481,13.3762963 0.619259259,13.6118519 C0.6,13.682963 0.583703704,13.757037 0.565925926,13.8281481 C0.524444444,13.9940741 0.482962963,14.1585185 0.447407407,14.3244444 C0.428148148,14.4133333 0.411851852,14.5037037 0.392592593,14.5940741 C0.362962963,14.7466667 0.333333333,14.8992593 0.308148148,15.0518519 C0.291851852,15.1466667 0.277037037,15.2414815 0.263703704,15.3362963 C0.24,15.4903704 0.219259259,15.6444444 0.201481481,15.7985185 C0.18962963,15.8918519 0.177777778,15.9837037 0.168888889,16.077037 C0.152592593,16.2444444 0.139259259,16.4133333 0.127407407,16.5822222 C0.121481481,16.6622222 0.114074074,16.7422222 0.111111111,16.8222222 C0.0977777778,17.0711111 0.0888888889,17.3214815 0.0874074074,17.5733333 L-1.86872341e-05,34.3140741 C-0.00296296296,34.9614815 0.346666667,35.5096296 0.872592593,35.7911111 L6.41185185,38.7348148 C6.36296296,38.0859259 6.3437037,37.4088889 6.3437037,37.4088889 L6.41925926,20.7274074" id="Fill-4" fill="#002856" mask="url(#mask-2)"></path>
                <path d="M23.0133333,31.082963 C17.282963,31.3896296 12.6622222,26.837037 12.6917101,20.9185185 C12.7214815,14.997037 17.3896296,9.94962963 23.12,9.64296296 C28.8459259,9.33777778 33.4666667,13.8888889 33.4386464,19.8103704 C33.4074074,25.7288889 28.7392593,30.7762963 23.0133333,31.082963 Z M38.2385185,18.6518519 C38.2340741,18.5644444 38.2251852,18.4785185 38.2207407,18.3896296 C38.2088889,18.2118519 38.2,18.0325926 38.1837037,17.8562963 C38.1748148,17.7525926 38.16,17.6503704 38.1481481,17.5481481 C38.1318519,17.3896296 38.1140741,17.2311111 38.0918519,17.0740741 C38.0755556,16.9659259 38.0562963,16.8577778 38.0385185,16.7511111 C38.0148148,16.6014815 37.9925926,16.4533333 37.962963,16.3066667 C37.9437037,16.1955556 37.917037,16.0859259 37.8933333,15.9762963 C37.8637037,15.8355556 37.8340741,15.6933333 37.8,15.5525926 C37.7733333,15.442963 37.7422222,15.3348148 37.7125926,15.2251852 C37.677037,15.0888889 37.64,14.9511111 37.6014815,14.8162963 C37.5688889,14.7081481 37.5333333,14.6 37.4992593,14.4933333 C37.4577778,14.36 37.4148148,14.2266667 37.3688889,14.0962963 C37.3303704,13.9896296 37.2903704,13.8844444 37.2518519,13.7792593 C37.202963,13.6503704 37.1540741,13.5214815 37.1022222,13.3940741 C37.0607407,13.2903704 37.0162963,13.1866667 36.9703704,13.0844444 C36.917037,12.9585185 36.8622222,12.8355556 36.8059259,12.7125926 C36.7585185,12.6103704 36.7096296,12.5096296 36.6577778,12.4088889 C36.5985185,12.2874074 36.5392593,12.1659259 36.477037,12.0474074 C36.4251852,11.9496296 36.3718519,11.8518519 36.317037,11.7555556 C36.2518519,11.637037 36.1866667,11.52 36.1185185,11.4044444 C36.0622222,11.3096296 36.0044444,11.2162963 35.9451852,11.122963 C35.8740741,11.0088889 35.802963,10.8948148 35.7288889,10.7837037 C35.6681481,10.6918519 35.6059259,10.6014815 35.5437037,10.5111111 C35.4696296,10.4014815 35.3925926,10.2918519 35.3125926,10.1851852 C35.2488889,10.0962963 35.1822222,10.0088889 35.1155556,9.92296296 C35.0355556,9.8162963 34.9540741,9.71259259 34.8696296,9.61037037 C34.8,9.52592593 34.7318519,9.44148148 34.6607407,9.35703704 C34.5748148,9.2562963 34.4888889,9.15703704 34.3985185,9.05925926 C34.3259259,8.97777778 34.2533333,8.89777778 34.1792593,8.81925926 C34.0888889,8.72148148 33.9955556,8.62666667 33.9022222,8.53333333 C33.8266667,8.4562963 33.7496296,8.38074074 33.6725926,8.30518519 C33.5762963,8.21333333 33.48,8.12148148 33.3807407,8.03259259 C33.3022222,7.96 33.2222222,7.88888889 33.1422222,7.81777778 C33.0414815,7.73037037 32.9407407,7.64444444 32.8355556,7.56 C32.7555556,7.49185185 32.6725926,7.42518519 32.5881481,7.35851852 C32.482963,7.27555556 32.3762963,7.19407407 32.2696296,7.11555556 C32.1837037,7.05185185 32.0977778,6.98814815 32.0118519,6.92740741 C31.9022222,6.84888889 31.7896296,6.77333333 31.6785185,6.69925926 C31.5911111,6.64 31.5037037,6.58074074 31.4133333,6.52444444 C31.2992593,6.45185185 31.1837037,6.3837037 31.0681481,6.31407407 C30.9777778,6.25925926 30.8874074,6.20444444 30.7955556,6.15259259 C30.677037,6.08592593 30.557037,6.02222222 30.437037,5.95851852 C30.3437037,5.90962963 30.2518519,5.85925926 30.1585185,5.81185185 C30.0355556,5.75111111 29.9111111,5.69333333 29.7866667,5.63407407 C29.6903704,5.58962963 29.597037,5.54518519 29.5007407,5.5037037 C29.3733333,5.44740741 29.2444444,5.39555556 29.117037,5.3437037 C29.0192593,5.30518519 28.9244444,5.2637037 28.8251852,5.22666667 C28.6933333,5.17777778 28.5614815,5.13185185 28.4281481,5.08592593 C28.3288889,5.05185185 28.2340741,5.0162963 28.1362963,4.98518519 C27.9985185,4.94074074 27.8592593,4.90222222 27.72,4.86222222 C27.6459259,4.84148148 27.5733333,4.81777778 27.4992593,4.79851852 C27.4755556,4.79111111 27.4533333,4.7837037 27.4281481,4.77777778 C27.3496296,4.75703704 27.2725926,4.73925926 27.1925926,4.72148148 L27.1911111,4.73185185 C26.9540741,4.69333333 24.8488889,4.4237037 24.6592593,4.41037037 L24.3925926,4.40888889 C24.2474074,4.40592593 24.0992593,4.40444444 24.0785185,4.40296296 C23.597037,4.37777778 23.0977778,4.37777778 22.6014815,4.40444444 C22.037037,4.43259259 21.5259259,4.48740741 21.0237037,4.56592593 C20.2785185,4.68444444 19.5333333,4.86074074 18.8088889,5.09185185 C17.8622222,5.39407407 16.9333333,5.79407407 16.0503704,6.28 C14.522963,7.12 13.1348148,8.20740741 11.9274074,9.51555556 C11.5837037,9.88444444 11.2592593,10.2696296 10.9511111,10.6696296 C10.4888889,11.2696296 10.0622222,11.9066667 9.68444444,12.562963 C9.30666667,13.2237037 8.96740741,13.917037 8.68,14.6251852 C8.48740741,15.1007407 8.31555556,15.5851852 8.16740741,16.0785185 C7.9437037,16.8251852 7.77037037,17.5911111 7.65333333,18.3585185 C7.53481481,19.1407407 7.47259259,19.9392593 7.46962963,20.7333333 L7.39259259,37.3985185 C7.39259259,37.3985185 7.41481481,38.242963 7.48,38.9244444 C7.52296296,39.3792593 8.18074074,39.7659259 8.71407407,39.9807407 C8.7362963,39.9822222 8.75851852,39.9851852 8.78074074,39.9866667 C8.85777778,39.9940741 8.93333333,40.002963 9.01333333,39.9985185 L36.4044444,38.5362963 C36.5274074,38.5288889 36.6459259,38.5096296 36.76,38.48 C37.1022222,38.3881481 37.4088889,38.1955556 37.6474074,37.9362963 C37.7274074,37.8503704 37.8,37.7555556 37.8637037,37.6562963 C37.9911111,37.4562963 38.082963,37.2325926 38.1318519,36.9940741 C38.1540741,36.8755556 38.1674074,36.7525926 38.1688889,36.6266667 L38.2550385,19.4607407 C38.2562963,19.1896296 38.2503704,18.92 38.2385185,18.6518519 L38.2385185,18.6518519 Z" id="Fill-5" fill="#002856" mask="url(#mask-2)"></path>
            </g>
        </g>
    </g>
</svg>