<?xml version="1.0" standalone="no"?>
<!DOCTYPE svg PUBLIC "-//W3C//DTD SVG 20010904//EN"
 "http://www.w3.org/TR/2001/REC-SVG-20010904/DTD/svg10.dtd">
<svg version="1.0" xmlns="http://www.w3.org/2000/svg"
 width="70.000000pt" height="70.000000pt" viewBox="0 0 70.000000 70.000000"
 preserveAspectRatio="xMidYMid meet">

<g transform="translate(0.000000,70.000000) scale(0.100000,-0.100000)"
fill="#000000" stroke="none">
<path d="M280 610 c-156 -12 -180 -18 -179 -43 1 -58 46 -457 51 -462 3 -4 63
-2 133 4 69 6 160 11 201 11 l74 0 0 239 c0 132 -4 242 -9 245 -17 11 -177 14
-271 6z m268 -248 l2 -232 -162 2 -163 3 -1 225 c0 124 1 228 3 233 3 4 75 6
161 5 l157 -3 3 -233z m-338 -7 c0 -150 -4 -235 -10 -235 -5 0 -10 12 -10 28
-1 15 -7 117 -15 227 -7 110 -11 203 -9 207 3 5 14 8 25 8 18 0 19 -9 19 -235z
m-60 208 c0 -10 7 -112 14 -228 8 -115 12 -212 10 -214 -11 -11 -17 21 -34
191 -11 100 -22 202 -24 226 -5 37 -3 42 14 42 12 0 20 -7 20 -17z"/>
<path d="M240 470 l0 -110 145 0 145 0 0 110 0 110 -145 0 -145 0 0 -110z
m186 58 c-4 -17 2 -28 21 -44 25 -19 26 -24 15 -48 -11 -24 -16 -26 -77 -26
-60 0 -66 2 -77 25 -15 32 12 75 47 75 14 0 29 8 35 20 15 29 44 27 36 -2z
m14 -138 c0 -5 -25 -10 -55 -10 -30 0 -55 5 -55 10 0 6 25 10 55 10 30 0 55
-4 55 -10z"/>
<path d="M330 485 c-15 -18 -7 -19 20 -3 16 10 24 10 43 -1 20 -13 21 -13 8 2
-17 21 -54 22 -71 2z"/>
<path d="M308 323 c39 -2 105 -2 145 0 39 1 7 3 -73 3 -80 0 -112 -2 -72 -3z"/>
<path d="M245 290 c-4 -6 38 -10 119 -10 77 0 126 4 126 10 0 6 -46 10 -119
10 -69 0 -122 -4 -126 -10z"/>
<path d="M313 253 c43 -2 110 -2 150 0 40 1 5 3 -78 3 -82 0 -115 -2 -72 -3z"/>
<path d="M303 223 c37 -2 97 -2 135 0 37 2 6 3 -68 3 -74 0 -105 -1 -67 -3z"/>
<path d="M376 174 c-8 -22 -8 -24 8 -24 21 0 28 16 12 29 -11 9 -15 8 -20 -5z"/>
<path d="M570 355 l0 -265 -237 -3 -238 -2 243 -3 242 -2 0 270 c0 149 -2 270
-5 270 -3 0 -5 -119 -5 -265z"/>
</g>
</svg>
